<mxfile host="Electron" modified="2023-05-09T12:02:45.467Z" agent="Mozilla/5.0 (Windows NT 10.0; Win64; x64) AppleWebKit/537.36 (KHTML, like Gecko) draw.io/21.2.8 Chrome/112.0.5615.165 Electron/24.2.0 Safari/537.36" etag="VxHU6EyAu9sPYfsBY31I" version="21.2.8" type="device">
  <diagram name="Page-1" id="03018318-947c-dd8e-b7a3-06fadd420f32">
    <mxGraphModel dx="1182" dy="922" grid="1" gridSize="10" guides="1" tooltips="1" connect="1" arrows="1" fold="1" page="1" pageScale="1" pageWidth="1100" pageHeight="850" background="none" math="0" shadow="0">
      <root>
        <mxCell id="0" />
        <mxCell id="1" parent="0" />
        <mxCell id="Xxkx5ilAb92KnmCX6Dnh-2" value="" style="rounded=0;whiteSpace=wrap;html=1;fillColor=#0050ef;strokeColor=#001DBC;fontColor=#ffffff;movable=0;resizable=0;rotatable=0;deletable=0;editable=0;locked=1;connectable=0;" vertex="1" parent="1">
          <mxGeometry x="20" y="20" width="1060" height="60" as="geometry" />
        </mxCell>
        <mxCell id="677b7b8949515195-1" value="" style="whiteSpace=wrap;html=1;rounded=0;shadow=0;labelBackgroundColor=none;strokeColor=#666666;strokeWidth=1;fillColor=#f5f5f5;fontFamily=Verdana;fontSize=12;align=center;comic=1;movable=1;resizable=1;rotatable=1;deletable=1;editable=1;locked=0;connectable=1;gradientColor=#b3b3b3;" parent="1" vertex="1">
          <mxGeometry x="20" y="80" width="1060" height="750" as="geometry" />
        </mxCell>
        <mxCell id="Xxkx5ilAb92KnmCX6Dnh-1" value="User Entry Wizard - Please enter your information" style="text;html=1;strokeColor=none;fillColor=none;align=center;verticalAlign=middle;whiteSpace=wrap;rounded=0;fontSize=28;fontStyle=1;movable=0;resizable=0;rotatable=0;deletable=0;editable=0;locked=1;connectable=0;" vertex="1" parent="1">
          <mxGeometry x="208" y="10" width="684" height="70" as="geometry" />
        </mxCell>
        <mxCell id="Xxkx5ilAb92KnmCX6Dnh-3" value="Next" style="strokeWidth=1;shadow=0;dashed=0;align=center;html=1;shape=mxgraph.mockup.buttons.button;strokeColor=#666666;mainText=;buttonStyle=round;fontSize=17;fontStyle=1;fillColor=#f5f5f5;whiteSpace=wrap;fontColor=#333333;" vertex="1" parent="1">
          <mxGeometry x="720" y="670" width="130" height="30" as="geometry" />
        </mxCell>
        <mxCell id="Xxkx5ilAb92KnmCX6Dnh-4" value="First name:" style="text;html=1;strokeColor=none;fillColor=none;align=center;verticalAlign=middle;whiteSpace=wrap;rounded=0;fontSize=14;" vertex="1" parent="1">
          <mxGeometry x="380" y="290" width="85" height="30" as="geometry" />
        </mxCell>
        <mxCell id="Xxkx5ilAb92KnmCX6Dnh-5" value="Last name:" style="text;html=1;strokeColor=none;fillColor=none;align=center;verticalAlign=middle;whiteSpace=wrap;rounded=0;fontSize=14;" vertex="1" parent="1">
          <mxGeometry x="380" y="370" width="85" height="30" as="geometry" />
        </mxCell>
        <mxCell id="Xxkx5ilAb92KnmCX6Dnh-6" value="Email:" style="text;html=1;strokeColor=none;fillColor=none;align=center;verticalAlign=middle;whiteSpace=wrap;rounded=0;fontSize=14;" vertex="1" parent="1">
          <mxGeometry x="380" y="460" width="85" height="30" as="geometry" />
        </mxCell>
        <mxCell id="Xxkx5ilAb92KnmCX6Dnh-7" value="Date of birth:&lt;br style=&quot;font-size: 14px;&quot;&gt;(dd/mm/yy)" style="text;html=1;strokeColor=none;fillColor=none;align=center;verticalAlign=middle;whiteSpace=wrap;rounded=0;fontSize=14;" vertex="1" parent="1">
          <mxGeometry x="380" y="520" width="85" height="60" as="geometry" />
        </mxCell>
        <mxCell id="Xxkx5ilAb92KnmCX6Dnh-10" value="Line 1" style="strokeWidth=1;shadow=0;dashed=0;align=center;html=1;shape=mxgraph.mockup.text.textBox;fontColor=#666666;align=left;fontSize=17;spacingLeft=4;spacingTop=-3;whiteSpace=wrap;strokeColor=#666666;mainText=" vertex="1" parent="1">
          <mxGeometry x="490" y="290" width="150" height="30" as="geometry" />
        </mxCell>
        <mxCell id="Xxkx5ilAb92KnmCX6Dnh-11" value="Line 1" style="strokeWidth=1;shadow=0;dashed=0;align=center;html=1;shape=mxgraph.mockup.text.textBox;fontColor=#666666;align=left;fontSize=17;spacingLeft=4;spacingTop=-3;whiteSpace=wrap;strokeColor=#666666;mainText=" vertex="1" parent="1">
          <mxGeometry x="490" y="370" width="150" height="30" as="geometry" />
        </mxCell>
        <mxCell id="Xxkx5ilAb92KnmCX6Dnh-12" value="Line 1" style="strokeWidth=1;shadow=0;dashed=0;align=center;html=1;shape=mxgraph.mockup.text.textBox;fontColor=#666666;align=left;fontSize=17;spacingLeft=4;spacingTop=-3;whiteSpace=wrap;strokeColor=#666666;mainText=" vertex="1" parent="1">
          <mxGeometry x="490" y="460" width="150" height="30" as="geometry" />
        </mxCell>
        <mxCell id="Xxkx5ilAb92KnmCX6Dnh-13" value="Line 1" style="strokeWidth=1;shadow=0;dashed=0;align=center;html=1;shape=mxgraph.mockup.text.textBox;fontColor=#666666;align=left;fontSize=17;spacingLeft=4;spacingTop=-3;whiteSpace=wrap;strokeColor=#666666;mainText=" vertex="1" parent="1">
          <mxGeometry x="490" y="535" width="150" height="30" as="geometry" />
        </mxCell>
      </root>
    </mxGraphModel>
  </diagram>
</mxfile>
